ffmpeg started on 2016-12-12 at 03:08:40
Report written to "Output/theora/results/ffmpeg/sintel3000k.log"
Command line:
Tools/ffmpeg/ffmpeg -benchmark -y -i Input/y4m/sintel.y4m -c:v libtheora -b:v 3000k -an Output/theora/encoded/sintel3000k.mkv
ffmpeg version N-82227-gdb23fde Copyright (c) 2000-2016 the FFmpeg developers
  built with gcc 5.4.0 (Ubuntu 5.4.0-6ubuntu1~16.04.2) 20160609
  configuration: --prefix=/home/jaroslav/ffmpeg_build --pkg-config-flags=--static --extra-cflags=-I/home/jaroslav/ffmpeg_build/include --extra-ldflags=-L/home/jaroslav/ffmpeg_build/lib --bindir=/home/jaroslav/bin --enable-gpl --enable-libass --enable-libfdk-aac --enable-libfreetype --enable-libmp3lame --enable-libopus --enable-libtheora --enable-libvorbis --enable-libvpx --enable-libx264 --enable-libx265 --enable-nvenc --enable-libmfx --enable-libxvid --enable-libgsm --enable-libopencore-amrnb --enable-version3 --enable-nonfree
  libavutil      55. 35.100 / 55. 35.100
  libavcodec     57. 66.101 / 57. 66.101
  libavformat    57. 57.100 / 57. 57.100
  libavdevice    57.  2.100 / 57.  2.100
  libavfilter     6. 66.100 /  6. 66.100
  libswscale      4.  3.100 /  4.  3.100
  libswresample   2.  4.100 /  2.  4.100
  libpostproc    54.  2.100 / 54.  2.100
Input #0, yuv4mpegpipe, from 'Input/y4m/sintel.y4m':
  Duration: 00:00:20.83, start: 0.000000, bitrate: 2057307 kb/s
    Stream #0:0: Video: rawvideo (I420 / 0x30323449), yuv420p(progressive), 4096x1744, SAR 1:1 DAR 256:109, 24 fps, 24 tbr, 24 tbn, 24 tbc
Output #0, matroska, to 'Output/theora/encoded/sintel3000k.mkv':
  Metadata:
    encoder         : Lavf57.57.100
    Stream #0:0: Video: theora (libtheora) (theo / 0x6F656874), yuv420p, 4096x1744 [SAR 1:1 DAR 256:109], q=2-31, 3000 kb/s, 24 fps, 1k tbn, 24 tbc
    Metadata:
      encoder         : Lavc57.66.101 libtheora
Stream mapping:
  Stream #0:0 -> #0:0 (rawvideo (native) -> theora (libtheora))
Press [q] to stop, [?] for help
frame=    3 fps=0.0 q=-0.0 size=       4kB time=00:00:00.08 bitrate= 380.5kbits/s speed=0.132x    frame=    5 fps=4.1 q=-0.0 size=       4kB time=00:00:00.16 bitrate= 190.2kbits/s speed=0.137x    frame=    7 fps=3.8 q=-0.0 size=       4kB time=00:00:00.25 bitrate= 127.3kbits/s speed=0.138x    frame=    9 fps=3.7 q=-0.0 size=       4kB time=00:00:00.33 bitrate=  95.7kbits/s speed=0.138x    frame=   11 fps=3.6 q=-0.0 size=       4kB time=00:00:00.41 bitrate=  76.5kbits/s speed=0.138x    frame=   13 fps=3.6 q=-0.0 size=     387kB time=00:00:00.50 bitrate=6332.4kbits/s speed=0.137x    frame=   16 fps=3.6 q=-0.0 size=     387kB time=00:00:00.62 bitrate=5068.0kbits/s speed=0.142x    frame=   18 fps=2.1 q=-0.0 size=     387kB time=00:00:00.70 bitrate=4474.7kbits/s speed=0.0846x    frame=   19 fps=1.6 q=-0.0 size=     387kB time=00:00:00.75 bitrate=4224.4kbits/s speed=0.0622x    frame=   20 fps=1.5 q=-0.0 size=     387kB time=00:00:00.79 bitrate=4000.7kbits/s speed=0.0593x    frame=   22 fps=1.6 q=-0.0 size=     387kB time=00:00:00.87 bitrate=3621.6kbits/s speed=0.0626x    frame=   24 fps=1.6 q=-0.0 size=     387kB time=00:00:00.95 bitrate=3308.2kbits/s speed=0.0656x    frame=   27 fps=1.8 q=-0.0 size=     860kB time=00:00:01.08 bitrate=6502.4kbits/s speed=0.0706x    frame=   29 fps=1.8 q=-0.0 size=     860kB time=00:00:01.16 bitrate=6034.8kbits/s speed=0.0731x    frame=   31 fps=1.9 q=-0.0 size=     860kB time=00:00:01.25 bitrate=5634.4kbits/s speed=0.0754x    frame=   33 fps=1.9 q=-0.0 size=     860kB time=00:00:01.33 bitrate=5283.8kbits/s speed=0.0776x    frame=   35 fps=2.0 q=-0.0 size=     860kB time=00:00:01.41 bitrate=4970.8kbits/s speed=0.0796x    frame=   37 fps=2.0 q=-0.0 size=    1250kB time=00:00:01.50 bitrate=6820.7kbits/s speed=0.0815x    frame=   40 fps=2.1 q=-0.0 size=    1250kB time=00:00:01.62 bitrate=6296.4kbits/s speed=0.0849x    frame=   42 fps=2.1 q=-0.0 size=    1250kB time=00:00:01.70 bitrate=5990.6kbits/s speed=0.0864x    frame=   44 fps=2.2 q=-0.0 size=    1250kB time=00:00:01.79 bitrate=5709.9kbits/s speed=0.088x    frame=   46 fps=2.2 q=-0.0 size=    1250kB time=00:00:01.87 bitrate=5457.3kbits/s speed=0.0894x    frame=   48 fps=2.2 q=-0.0 size=    1250kB time=00:00:01.95 bitrate=5226.1kbits/s speed=0.0908x    frame=   51 fps=2.3 q=-0.0 size=    1449kB time=00:00:02.08 bitrate=5694.5kbits/s speed=0.0934x    frame=   53 fps=2.3 q=-0.0 size=    1449kB time=00:00:02.16 bitrate=5473.9kbits/s speed=0.0947x    frame=   55 fps=2.3 q=-0.0 size=    1449kB time=00:00:02.25 bitrate=5272.0kbits/s speed=0.0958x    frame=   57 fps=2.4 q=-0.0 size=    1558kB time=00:00:02.33 bitrate=5470.1kbits/s speed=0.0968x    frame=   59 fps=2.4 q=-0.0 size=    1601kB time=00:00:02.41 bitrate=5425.4kbits/s speed=0.0975x    frame=   61 fps=2.4 q=-0.0 size=    1601kB time=00:00:02.50 bitrate=5245.4kbits/s speed=0.0978x    frame=   63 fps=2.4 q=-0.0 size=    1601kB time=00:00:02.58 bitrate=5076.9kbits/s speed=0.0988x    frame=   65 fps=2.4 q=-0.0 size=    1601kB time=00:00:02.66 bitrate=4917.0kbits/s speed=0.0997x    frame=   67 fps=2.4 q=-0.0 size=    1722kB time=00:00:02.75 bitrate=5129.0kbits/s speed= 0.1x    frame=   69 fps=2.5 q=-0.0 size=    1750kB time=00:00:02.83 bitrate=5058.5kbits/s speed=0.101x    frame=   71 fps=2.5 q=-0.0 size=    1805kB time=00:00:02.91 bitrate=5066.2kbits/s speed=0.101x    frame=   73 fps=2.5 q=-0.0 size=    1805kB time=00:00:03.00 bitrate=4926.1kbits/s speed=0.102x    frame=   75 fps=2.5 q=-0.0 size=    1833kB time=00:00:03.08 bitrate=4868.8kbits/s speed=0.102x    frame=   77 fps=2.5 q=-0.0 size=    1861kB time=00:00:03.16 bitrate=4811.5kbits/s speed=0.103x    frame=   79 fps=2.5 q=-0.0 size=    1910kB time=00:00:03.25 bitrate=4811.8kbits/s speed=0.102x    frame=   81 fps=2.5 q=-0.0 size=    1937kB time=00:00:03.33 bitrate=4759.3kbits/s speed=0.103x    frame=   83 fps=2.5 q=-0.0 size=    1964kB time=00:00:03.41 bitrate=4707.5kbits/s speed=0.103x    frame=   85 fps=2.5 q=-0.0 size=    1995kB time=00:00:03.50 bitrate=4667.3kbits/s speed=0.103x    frame=   87 fps=2.5 q=-0.0 size=    2050kB time=00:00:03.58 bitrate=4684.6kbits/s speed=0.103x    frame=   89 fps=2.5 q=-0.0 size=    2080kB time=00:00:03.66 bitrate=4644.7kbits/s speed=0.103x    frame=   91 fps=2.5 q=-0.0 size=    2080kB time=00:00:03.75 bitrate=4541.9kbits/s speed=0.104x    frame=   93 fps=2.5 q=-0.0 size=    2113kB time=00:00:03.83 bitrate=4514.5kbits/s speed=0.104x    frame=   95 fps=2.5 q=-0.0 size=    2147kB time=00:00:03.91 bitrate=4488.2kbits/s speed=0.104x    frame=   97 fps=2.5 q=-0.0 size=    2147kB time=00:00:04.00 bitrate=4395.1kbits/s speed=0.105x    frame=   99 fps=2.6 q=-0.0 size=    2211kB time=00:00:04.08 bitrate=4435.2kbits/s speed=0.105x    frame=  101 fps=2.6 q=-0.0 size=    2211kB time=00:00:04.16 bitrate=4345.8kbits/s speed=0.106x    frame=  103 fps=2.6 q=-0.0 size=    2211kB time=00:00:04.25 bitrate=4261.0kbits/s speed=0.106x    frame=  105 fps=2.6 q=-0.0 size=    2278kB time=00:00:04.33 bitrate=4305.5kbits/s speed=0.106x    frame=  107 fps=2.6 q=-0.0 size=    2278kB time=00:00:04.41 bitrate=4223.6kbits/s speed=0.107x    frame=  109 fps=2.6 q=-0.0 size=    2278kB time=00:00:04.50 bitrate=4145.7kbits/s speed=0.107x    frame=  111 fps=2.6 q=-0.0 size=    2278kB time=00:00:04.58 bitrate=4070.7kbits/s speed=0.108x    frame=  113 fps=2.6 q=-0.0 size=    2407kB time=00:00:04.66 bitrate=4223.9kbits/s speed=0.108x    frame=  115 fps=2.6 q=-0.0 size=    2407kB time=00:00:04.75 bitrate=4150.1kbits/s speed=0.108x    frame=  117 fps=2.6 q=-0.0 size=    2492kB time=00:00:04.83 bitrate=4222.5kbits/s speed=0.109x    frame=  119 fps=2.6 q=-0.0 size=    2492kB time=00:00:04.91 bitrate=4150.4kbits/s speed=0.109x    frame=  121 fps=2.6 q=-0.0 size=    2492kB time=00:00:05.00 bitrate=4081.5kbits/s speed=0.109x    frame=  123 fps=2.6 q=-0.0 size=    2492kB time=00:00:05.08 bitrate=4014.9kbits/s speed=0.109x    frame=  125 fps=2.7 q=-0.0 size=    2492kB time=00:00:05.16 bitrate=3949.6kbits/s speed=0.11x    frame=  127 fps=2.7 q=-0.0 size=    2617kB time=00:00:05.25 bitrate=4082.8kbits/s speed=0.11x    frame=  129 fps=2.7 q=-0.0 size=    2663kB time=00:00:05.33 bitrate=4089.5kbits/s speed=0.11x    frame=  131 fps=2.7 q=-0.0 size=    2712kB time=00:00:05.41 bitrate=4100.6kbits/s speed=0.11x    frame=  133 fps=2.7 q=-0.0 size=    2712kB time=00:00:05.50 bitrate=4038.7kbits/s speed=0.11x    frame=  135 fps=2.7 q=-0.0 size=    2768kB time=00:00:05.58 bitrate=4060.2kbits/s speed=0.11x    frame=  137 fps=2.7 q=-0.0 size=    2768kB time=00:00:05.66 bitrate=4000.0kbits/s speed=0.11x    frame=  139 fps=2.7 q=-0.0 size=    2822kB time=00:00:05.75 bitrate=4020.2kbits/s speed=0.11x    frame=  141 fps=2.7 q=-0.0 size=    2822kB time=00:00:05.83 bitrate=3963.0kbits/s speed=0.11x    frame=  143 fps=2.7 q=-0.0 size=    2822kB time=00:00:05.91 bitrate=3906.8kbits/s speed=0.11x    frame=  145 fps=2.7 q=-0.0 size=    2822kB time=00:00:06.00 bitrate=3852.7kbits/s speed=0.11x    frame=  147 fps=2.7 q=-0.0 size=    2822kB time=00:00:06.08 bitrate=3800.2kbits/s speed=0.111x    frame=  149 fps=2.7 q=-0.0 size=    2822kB time=00:00:06.16 bitrate=3748.4kbits/s speed=0.111x    frame=  151 fps=2.7 q=-0.0 size=    2822kB time=00:00:06.25 bitrate=3698.7kbits/s speed=0.111x    frame=  153 fps=2.7 q=-0.0 size=    3021kB time=00:00:06.33 bitrate=3907.1kbits/s speed=0.111x    frame=  156 fps=2.7 q=-0.0 size=    3021kB time=00:00:06.45 bitrate=3831.5kbits/s speed=0.112x    frame=  158 fps=2.7 q=-0.0 size=    3114kB time=00:00:06.54 bitrate=3898.6kbits/s speed=0.112x    frame=  160 fps=2.7 q=-0.0 size=    3114kB time=00:00:06.62 bitrate=3849.8kbits/s speed=0.112x    frame=  162 fps=2.7 q=-0.0 size=    3175kB time=00:00:06.70 bitrate=3876.6kbits/s speed=0.113x    frame=  164 fps=2.7 q=-0.0 size=    3208kB time=00:00:06.79 bitrate=3868.3kbits/s speed=0.113x    frame=  166 fps=2.7 q=-0.0 size=    3208kB time=00:00:06.87 bitrate=3821.6kbits/s speed=0.113x    frame=  168 fps=2.7 q=-0.0 size=    3277kB time=00:00:06.95 bitrate=3857.7kbits/s speed=0.113x    frame=  170 fps=2.7 q=-0.0 size=    3312kB time=00:00:07.04 bitrate=3852.5kbits/s speed=0.113x    frame=  172 fps=2.7 q=-0.0 size=    3347kB time=00:00:07.12 bitrate=3847.6kbits/s speed=0.113x    frame=  174 fps=2.7 q=-0.0 size=    3347kB time=00:00:07.20 bitrate=3803.3kbits/s speed=0.113x    frame=  176 fps=2.7 q=-0.0 size=    3382kB time=00:00:07.29 bitrate=3798.7kbits/s speed=0.113x    frame=  178 fps=2.7 q=-0.0 size=    3416kB time=00:00:07.37 bitrate=3793.7kbits/s speed=0.113x    frame=  180 fps=2.7 q=-0.0 size=    3449kB time=00:00:07.45 bitrate=3787.6kbits/s speed=0.113x    frame=  182 fps=2.7 q=-0.0 size=    3482kB time=00:00:07.54 bitrate=3781.4kbits/s speed=0.113x    frame=  184 fps=2.7 q=-0.0 size=    3482kB time=00:00:07.62 bitrate=3740.2kbits/s speed=0.113x    frame=  186 fps=2.7 q=-0.0 size=    3482kB time=00:00:07.70 bitrate=3699.9kbits/s speed=0.113x    frame=  188 fps=2.7 q=-0.0 size=    3482kB time=00:00:07.79 bitrate=3660.0kbits/s speed=0.113x    frame=  190 fps=2.7 q=-0.0 size=    3482kB time=00:00:07.87 bitrate=3621.5kbits/s speed=0.114x    frame=  192 fps=2.7 q=-0.0 size=    3482kB time=00:00:07.95 bitrate=3583.7kbits/s speed=0.114x    frame=  194 fps=2.7 q=-0.0 size=    3641kB time=00:00:08.04 bitrate=3708.0kbits/s speed=0.114x    frame=  196 fps=2.8 q=-0.0 size=    3705kB time=00:00:08.12 bitrate=3735.2kbits/s speed=0.114x    frame=  198 fps=2.8 q=-0.0 size=    3705kB time=00:00:08.20 bitrate=3697.4kbits/s speed=0.114x    frame=  200 fps=2.8 q=-0.0 size=    3736kB time=00:00:08.29 bitrate=3690.9kbits/s speed=0.114x    frame=  202 fps=2.8 q=-0.0 size=    3769kB time=00:00:08.37 bitrate=3686.2kbits/s speed=0.114x    frame=  204 fps=2.8 q=-0.0 size=    3807kB time=00:00:08.45 bitrate=3687.1kbits/s speed=0.114x    frame=  206 fps=2.8 q=-0.0 size=    3846kB time=00:00:08.54 bitrate=3687.5kbits/s speed=0.114x    frame=  208 fps=2.8 q=-0.0 size=    3846kB time=00:00:08.62 bitrate=3652.1kbits/s speed=0.114x    frame=  210 fps=2.8 q=-0.0 size=    3885kB time=00:00:08.70 bitrate=3654.1kbits/s speed=0.114x    frame=  212 fps=2.8 q=-0.0 size=    3927kB time=00:00:08.79 bitrate=3658.2kbits/s speed=0.114x    frame=  214 fps=2.8 q=-0.0 size=    3927kB time=00:00:08.87 bitrate=3624.0kbits/s speed=0.115x    frame=  216 fps=2.8 q=-0.0 size=    3927kB time=00:00:08.95 bitrate=3590.4kbits/s speed=0.115x    frame=  218 fps=2.8 q=-0.0 size=    3927kB time=00:00:09.04 bitrate=3557.0kbits/s speed=0.115x    frame=  220 fps=2.8 q=-0.0 size=    3927kB time=00:00:09.12 bitrate=3524.7kbits/s speed=0.115x    frame=  222 fps=2.8 q=-0.0 size=    3927kB time=00:00:09.20 bitrate=3492.9kbits/s speed=0.115x    frame=  224 fps=2.8 q=-0.0 size=    4135kB time=00:00:09.29 bitrate=3645.1kbits/s speed=0.115x    frame=  227 fps=2.8 q=-0.0 size=    4135kB time=00:00:09.41 bitrate=3596.7kbits/s speed=0.116x    frame=  229 fps=2.8 q=-0.0 size=    4135kB time=00:00:09.50 bitrate=3565.3kbits/s speed=0.116x    frame=  231 fps=2.8 q=-0.0 size=    4135kB time=00:00:09.58 bitrate=3534.4kbits/s speed=0.116x    frame=  233 fps=2.8 q=-0.0 size=    4135kB time=00:00:09.66 bitrate=3503.7kbits/s speed=0.116x    frame=  235 fps=2.8 q=-0.0 size=    4135kB time=00:00:09.75 bitrate=3473.9kbits/s speed=0.117x    frame=  238 fps=2.8 q=-0.0 size=    4302kB time=00:00:09.87 bitrate=3568.8kbits/s speed=0.117x    frame=  240 fps=2.8 q=-0.0 size=    4302kB time=00:00:09.95 bitrate=3539.1kbits/s speed=0.117x    frame=  242 fps=2.8 q=-0.0 size=    4302kB time=00:00:10.04 bitrate=3509.5kbits/s speed=0.117x    frame=  244 fps=2.8 q=-0.0 size=    4302kB time=00:00:10.12 bitrate=3480.7kbits/s speed=0.117x    frame=  246 fps=2.8 q=-0.0 size=    4302kB time=00:00:10.20 bitrate=3452.4kbits/s speed=0.118x    frame=  248 fps=2.8 q=-0.0 size=    4453kB time=00:00:10.29 bitrate=3543.7kbits/s speed=0.118x    frame=  250 fps=2.8 q=-0.0 size=    4453kB time=00:00:10.37 bitrate=3515.3kbits/s speed=0.118x    frame=  252 fps=2.8 q=-0.0 size=    4453kB time=00:00:10.45 bitrate=3487.4kbits/s speed=0.118x    frame=  254 fps=2.8 q=-0.0 size=    4453kB time=00:00:10.54 bitrate=3459.7kbits/s speed=0.118x    frame=  256 fps=2.8 q=-0.0 size=    4453kB time=00:00:10.62 bitrate=3432.6kbits/s speed=0.118x    frame=  258 fps=2.8 q=-0.0 size=    4453kB time=00:00:10.70 bitrate=3406.0kbits/s speed=0.118x    frame=  261 fps=2.9 q=-0.0 size=    4656kB time=00:00:10.83 bitrate=3520.6kbits/s speed=0.119x    frame=  263 fps=2.9 q=-0.0 size=    4656kB time=00:00:10.91 bitrate=3493.5kbits/s speed=0.119x    frame=  265 fps=2.9 q=-0.0 size=    4656kB time=00:00:11.00 bitrate=3467.2kbits/s speed=0.119x    frame=  267 fps=2.9 q=-0.0 size=    4656kB time=00:00:11.08 bitrate=3441.2kbits/s speed=0.119x    frame=  269 fps=2.9 q=-0.0 size=    4656kB time=00:00:11.16 bitrate=3415.3kbits/s speed=0.119x    frame=  271 fps=2.9 q=-0.0 size=    4855kB time=00:00:11.25 bitrate=3534.9kbits/s speed=0.119x    frame=  274 fps=2.9 q=-0.0 size=    4855kB time=00:00:11.37 bitrate=3496.1kbits/s speed=0.12x    frame=  276 fps=2.9 q=-0.0 size=    4855kB time=00:00:11.45 bitrate=3470.8kbits/s speed=0.12x    frame=  278 fps=2.9 q=-0.0 size=    4855kB time=00:00:11.54 bitrate=3445.5kbits/s speed=0.12x    frame=  280 fps=2.9 q=-0.0 size=    4855kB time=00:00:11.62 bitrate=3420.9kbits/s speed=0.12x    frame=  282 fps=2.9 q=-0.0 size=    4855kB time=00:00:11.70 bitrate=3396.7kbits/s speed=0.12x    frame=  285 fps=2.9 q=-0.0 size=    5019kB time=00:00:11.83 bitrate=3474.3kbits/s speed=0.121x    frame=  287 fps=2.9 q=-0.0 size=    5019kB time=00:00:11.91 bitrate=3449.8kbits/s speed=0.121x    frame=  289 fps=2.9 q=-0.0 size=    5019kB time=00:00:12.00 bitrate=3426.0kbits/s speed=0.121x    frame=  291 fps=2.9 q=-0.0 size=    5019kB time=00:00:12.08 bitrate=3402.4kbits/s speed=0.121x    frame=  293 fps=2.9 q=-0.0 size=    5019kB time=00:00:12.16 bitrate=3378.9kbits/s speed=0.121x    frame=  295 fps=2.9 q=-0.0 size=    5221kB time=00:00:12.25 bitrate=3491.2kbits/s speed=0.121x    frame=  298 fps=2.9 q=-0.0 size=    5221kB time=00:00:12.37 bitrate=3456.0kbits/s speed=0.122x    frame=  300 fps=2.9 q=-0.0 size=    5221kB time=00:00:12.45 bitrate=3433.0kbits/s speed=0.122x    frame=  302 fps=2.9 q=-0.0 size=    5221kB time=00:00:12.54 bitrate=3410.0kbits/s speed=0.122x    frame=  304 fps=2.9 q=-0.0 size=    5221kB time=00:00:12.62 bitrate=3387.6kbits/s speed=0.122x    frame=  306 fps=2.9 q=-0.0 size=    5221kB time=00:00:12.70 bitrate=3365.4kbits/s speed=0.122x    frame=  309 fps=3.0 q=-0.0 size=    5400kB time=00:00:12.83 bitrate=3446.7kbits/s speed=0.123x    frame=  311 fps=3.0 q=-0.0 size=    5400kB time=00:00:12.91 bitrate=3424.3kbits/s speed=0.123x    frame=  313 fps=3.0 q=-0.0 size=    5400kB time=00:00:13.00 bitrate=3402.4kbits/s speed=0.123x    frame=  315 fps=3.0 q=-0.0 size=    5400kB time=00:00:13.08 bitrate=3380.8kbits/s speed=0.123x    frame=  317 fps=3.0 q=-0.0 size=    5400kB time=00:00:13.16 bitrate=3359.2kbits/s speed=0.123x    frame=  319 fps=3.0 q=-0.0 size=    5590kB time=00:00:13.25 bitrate=3455.5kbits/s speed=0.123x    frame=  322 fps=3.0 q=-0.0 size=    5590kB time=00:00:13.37 bitrate=3423.3kbits/s speed=0.124x    frame=  324 fps=3.0 q=-0.0 size=    5590kB time=00:00:13.45 bitrate=3402.1kbits/s speed=0.124x    frame=  326 fps=3.0 q=-0.0 size=    5590kB time=00:00:13.54 bitrate=3381.0kbits/s speed=0.124x    frame=  328 fps=3.0 q=-0.0 size=    5590kB time=00:00:13.62 bitrate=3360.4kbits/s speed=0.124x    frame=  330 fps=3.0 q=-0.0 size=    5590kB time=00:00:13.70 bitrate=3340.1kbits/s speed=0.124x    frame=  333 fps=3.0 q=-0.0 size=    5768kB time=00:00:13.83 bitrate=3415.6kbits/s speed=0.124x    frame=  335 fps=3.0 q=-0.0 size=    5768kB time=00:00:13.91 bitrate=3395.0kbits/s speed=0.125x    frame=  337 fps=3.0 q=-0.0 size=    5768kB time=00:00:14.00 bitrate=3374.8kbits/s speed=0.125x    frame=  339 fps=3.0 q=-0.0 size=    5768kB time=00:00:14.08 bitrate=3355.0kbits/s speed=0.125x    frame=  341 fps=3.0 q=-0.0 size=    5768kB time=00:00:14.16 bitrate=3335.1kbits/s speed=0.125x    frame=  343 fps=3.0 q=-0.0 size=    5956kB time=00:00:14.25 bitrate=3423.5kbits/s speed=0.125x    frame=  346 fps=3.0 q=-0.0 size=    5956kB time=00:00:14.37 bitrate=3393.7kbits/s speed=0.125x    frame=  348 fps=3.0 q=-0.0 size=    5956kB time=00:00:14.45 bitrate=3374.2kbits/s speed=0.125x    frame=  350 fps=3.0 q=-0.0 size=    5956kB time=00:00:14.54 bitrate=3354.7kbits/s speed=0.126x    frame=  352 fps=3.0 q=-0.0 size=    5956kB time=00:00:14.62 bitrate=3335.7kbits/s speed=0.126x    frame=  354 fps=3.0 q=-0.0 size=    5956kB time=00:00:14.70 bitrate=3316.9kbits/s speed=0.126x    frame=  357 fps=3.0 q=-0.0 size=    6123kB time=00:00:14.83 bitrate=3381.5kbits/s speed=0.126x    frame=  359 fps=3.0 q=-0.0 size=    6123kB time=00:00:14.91 bitrate=3362.5kbits/s speed=0.126x    frame=  361 fps=3.0 q=-0.0 size=    6123kB time=00:00:15.00 bitrate=3343.9kbits/s speed=0.126x    frame=  363 fps=3.0 q=-0.0 size=    6250kB time=00:00:15.08 bitrate=3394.5kbits/s speed=0.126x    frame=  365 fps=3.0 q=-0.0 size=    6250kB time=00:00:15.16 bitrate=3375.7kbits/s speed=0.126x    frame=  367 fps=3.0 q=-0.0 size=    6250kB time=00:00:15.25 bitrate=3357.3kbits/s speed=0.126x    frame=  369 fps=3.0 q=-0.0 size=    6250kB time=00:00:15.33 bitrate=3339.1kbits/s speed=0.127x    frame=  371 fps=3.0 q=-0.0 size=    6250kB time=00:00:15.41 bitrate=3320.9kbits/s speed=0.127x    frame=  373 fps=3.0 q=-0.0 size=    6250kB time=00:00:15.50 bitrate=3303.1kbits/s speed=0.127x    frame=  375 fps=3.1 q=-0.0 size=    6250kB time=00:00:15.58 bitrate=3285.5kbits/s speed=0.127x    frame=  378 fps=3.1 q=-0.0 size=    6454kB time=00:00:15.70 bitrate=3365.9kbits/s speed=0.127x    frame=  380 fps=3.1 q=-0.0 size=    6454kB time=00:00:15.79 bitrate=3348.0kbits/s speed=0.127x    frame=  382 fps=3.1 q=-0.0 size=    6454kB time=00:00:15.87 bitrate=3330.5kbits/s speed=0.127x    frame=  384 fps=3.1 q=-0.0 size=    6454kB time=00:00:15.95 bitrate=3313.1kbits/s speed=0.127x    frame=  386 fps=3.1 q=-0.0 size=    6454kB time=00:00:16.04 bitrate=3295.8kbits/s speed=0.127x    frame=  388 fps=3.1 q=-0.0 size=    6630kB time=00:00:16.12 bitrate=3368.1kbits/s speed=0.128x    frame=  391 fps=3.1 q=-0.0 size=    6630kB time=00:00:16.25 bitrate=3342.2kbits/s speed=0.128x    frame=  393 fps=3.1 q=-0.0 size=    6630kB time=00:00:16.33 bitrate=3325.2kbits/s speed=0.128x    frame=  395 fps=3.1 q=-0.0 size=    6630kB time=00:00:16.41 bitrate=3308.2kbits/s speed=0.128x    frame=  397 fps=3.1 q=-0.0 size=    6630kB time=00:00:16.50 bitrate=3291.5kbits/s speed=0.128x    frame=  399 fps=3.1 q=-0.0 size=    6630kB time=00:00:16.58 bitrate=3275.1kbits/s speed=0.128x    frame=  402 fps=3.1 q=-0.0 size=    6807kB time=00:00:16.70 bitrate=3337.2kbits/s speed=0.128x    frame=  404 fps=3.1 q=-0.0 size=    6807kB time=00:00:16.79 bitrate=3320.5kbits/s speed=0.128x    frame=  406 fps=3.1 q=-0.0 size=    6807kB time=00:00:16.87 bitrate=3304.1kbits/s speed=0.128x    frame=  408 fps=3.1 q=-0.0 size=    6807kB time=00:00:16.95 bitrate=3288.0kbits/s speed=0.128x    frame=  410 fps=3.1 q=-0.0 size=    6807kB time=00:00:17.04 bitrate=3271.8kbits/s speed=0.128x    frame=  412 fps=3.1 q=-0.0 size=    7004kB time=00:00:17.12 bitrate=3350.3kbits/s speed=0.128x    frame=  415 fps=3.1 q=-0.0 size=    7004kB time=00:00:17.25 bitrate=3326.0kbits/s speed=0.129x    frame=  417 fps=3.1 q=-0.0 size=    7004kB time=00:00:17.33 bitrate=3310.1kbits/s speed=0.129x    frame=  419 fps=3.1 q=-0.0 size=    7118kB time=00:00:17.41 bitrate=3347.8kbits/s speed=0.129x    frame=  421 fps=3.1 q=-0.0 size=    7118kB time=00:00:17.50 bitrate=3331.9kbits/s speed=0.129x    frame=  423 fps=3.1 q=-0.0 size=    7118kB time=00:00:17.58 bitrate=3316.2kbits/s speed=0.129x    frame=  425 fps=3.1 q=-0.0 size=    7118kB time=00:00:17.66 bitrate=3300.4kbits/s speed=0.129x    frame=  427 fps=3.1 q=-0.0 size=    7118kB time=00:00:17.75 bitrate=3285.0kbits/s speed=0.129x    frame=  429 fps=3.1 q=-0.0 size=    7118kB time=00:00:17.83 bitrate=3269.7kbits/s speed=0.129x    frame=  431 fps=3.1 q=-0.0 size=    7118kB time=00:00:17.91 bitrate=3254.4kbits/s speed=0.129x    frame=  433 fps=3.1 q=-0.0 size=    7118kB time=00:00:18.00 bitrate=3239.4kbits/s speed=0.129x    frame=  436 fps=3.1 q=-0.0 size=    7330kB time=00:00:18.12 bitrate=3312.9kbits/s speed=0.129x    frame=  438 fps=3.1 q=-0.0 size=    7330kB time=00:00:18.20 bitrate=3297.8kbits/s speed=0.129x    frame=  440 fps=3.1 q=-0.0 size=    7330kB time=00:00:18.29 bitrate=3282.7kbits/s speed=0.129x    frame=  442 fps=3.1 q=-0.0 size=    7330kB time=00:00:18.37 bitrate=3267.9kbits/s speed=0.129x    frame=  444 fps=3.1 q=-0.0 size=    7330kB time=00:00:18.45 bitrate=3253.2kbits/s speed=0.13x    frame=  446 fps=3.1 q=-0.0 size=    7516kB time=00:00:18.54 bitrate=3320.5kbits/s speed=0.13x    frame=  449 fps=3.1 q=-0.0 size=    7516kB time=00:00:18.66 bitrate=3298.3kbits/s speed=0.13x    frame=  451 fps=3.1 q=-0.0 size=    7516kB time=00:00:18.75 bitrate=3283.7kbits/s speed=0.13x    frame=  452 fps=3.1 q=-0.0 size=    7516kB time=00:00:18.79 bitrate=3276.4kbits/s speed=0.13x    frame=  454 fps=3.1 q=-0.0 size=    7516kB time=00:00:18.87 bitrate=3262.0kbits/s speed=0.13x    frame=  456 fps=3.1 q=-0.0 size=    7516kB time=00:00:18.95 bitrate=3247.7kbits/s speed=0.13x    frame=  458 fps=3.1 q=-0.0 size=    7713kB time=00:00:19.04 bitrate=3317.8kbits/s speed=0.13x    frame=  461 fps=3.1 q=-0.0 size=    7713kB time=00:00:19.16 bitrate=3296.2kbits/s speed=0.13x    frame=  463 fps=3.1 q=-0.0 size=    7713kB time=00:00:19.25 bitrate=3282.0kbits/s speed=0.13x    frame=  465 fps=3.1 q=-0.0 size=    7713kB time=00:00:19.33 bitrate=3267.9kbits/s speed=0.13x    frame=  467 fps=3.1 q=-0.0 size=    7713kB time=00:00:19.41 bitrate=3253.7kbits/s speed=0.13x    frame=  469 fps=3.1 q=-0.0 size=    7713kB time=00:00:19.50 bitrate=3239.9kbits/s speed=0.13x    frame=  472 fps=3.1 q=-0.0 size=    7893kB time=00:00:19.62 bitrate=3294.5kbits/s speed=0.131x    frame=  474 fps=3.1 q=-0.0 size=    7893kB time=00:00:19.70 bitrate=3280.6kbits/s speed=0.131x    frame=  475 fps=3.1 q=-0.0 size=    7893kB time=00:00:19.75 bitrate=3273.6kbits/s speed=0.13x    frame=  477 fps=3.1 q=-0.0 size=    7893kB time=00:00:19.83 bitrate=3259.9kbits/s speed=0.13x    frame=  479 fps=3.1 q=-0.0 size=    7893kB time=00:00:19.91 bitrate=3246.2kbits/s speed=0.131x    frame=  481 fps=3.1 q=-0.0 size=    7893kB time=00:00:20.00 bitrate=3232.7kbits/s speed=0.131x    frame=  484 fps=3.1 q=-0.0 size=    8073kB time=00:00:20.12 bitrate=3285.8kbits/s speed=0.131x    frame=  486 fps=3.1 q=-0.0 size=    8073kB time=00:00:20.20 bitrate=3272.3kbits/s speed=0.131x    frame=  488 fps=3.1 q=-0.0 size=    8073kB time=00:00:20.29 bitrate=3258.8kbits/s speed=0.131x    frame=  490 fps=3.2 q=-0.0 size=    8073kB time=00:00:20.37 bitrate=3245.5kbits/s speed=0.131x    frame=  492 fps=3.2 q=-0.0 size=    8073kB time=00:00:20.45 bitrate=3232.3kbits/s speed=0.131x    frame=  494 fps=3.2 q=-0.0 size=    8244kB time=00:00:20.54 bitrate=3287.6kbits/s speed=0.131x    frame=  497 fps=3.2 q=-0.0 size=    8244kB time=00:00:20.66 bitrate=3267.7kbits/s speed=0.131x    frame=  499 fps=3.2 q=-0.0 size=    8244kB time=00:00:20.75 bitrate=3254.6kbits/s speed=0.131x    frame=  500 fps=3.2 q=-0.0 size=    8244kB time=00:00:20.79 bitrate=3248.0kbits/s speed=0.131x    frame=  500 fps=3.2 q=-0.0 Lsize=    8356kB time=00:00:20.79 bitrate=3292.3kbits/s speed=0.131x    
video:8345kB audio:0kB subtitle:0kB other streams:0kB global headers:3kB muxing overhead: 0.132500%
bench: utime=139.512s
bench: maxrss=214288kB
